<svg xmlns:dc="http://purl.org/dc/elements/1.1/" xmlns:cc="http://creativecommons.org/ns#" xmlns:rdf="http://www.w3.org/1999/02/22-rdf-syntax-ns#" xmlns:svg="http://www.w3.org/2000/svg" xmlns="http://www.w3.org/2000/svg" xmlns:sodipodi="http://sodipodi.sourceforge.net/DTD/sodipodi-0.dtd" xmlns:inkscape="http://www.inkscape.org/namespaces/inkscape" version="1.1" x="0px" y="0px" viewBox="0 0 100 125"><defs><style type="text/css">
   
    .fil0 {fill:black}
   
  </style></defs><g transform="translate(0,-952.36218)"><path style="" class="fil0" d="m 78.511293,970.46 c 3.302927,0 6.013021,3.04886 6.013021,6.77524 0,3.72638 -2.710094,6.77523 -6.013021,6.77523 -3.302927,0 -6.01302,-3.04885 -6.01302,-6.77523 0,-3.72638 2.710093,-6.77524 6.01302,-6.77524 z" fill="#000000" fill-rule="evenodd"/><path style="" class="fil0" d="m 80.035721,994.76616 c -1.609118,0 -2.964165,1.35504 -2.964165,2.96416 0,1.60912 1.355047,2.96418 2.964165,2.96418 l 0,-6.01304 z" fill="#000000" fill-rule="evenodd"/><path style="" class="fil0" d="m 86.133432,985.45021 c 1.016285,0 2.03257,0.50814 2.540713,1.43974 l 5.758949,9.14656 c 1.355047,2.20195 0.169381,4.82739 -2.371332,4.82739 l -2.03257,0 0,-7.02934 c -3.302927,0 -6.690544,0 -9.993471,0 -2.201951,0 -3.98045,1.7785 -3.98045,3.98045 0,2.20199 1.778499,3.98049 3.98045,3.98049 l 0,9.9934 7.368067,0 0,6.6059 -0.592833,0 0,21.0032 c 0,1.6091 -1.355047,2.9642 -2.964165,2.9642 l -1.778499,0 c -1.609118,0 -2.964165,-1.3551 -2.964165,-2.9642 l 0,-21.0032 -1.185666,0 0,21.0032 c 0,1.6091 -1.355047,2.9642 -2.964165,2.9642 l -1.778499,0 c -1.609118,0 -2.964165,-1.3551 -2.964165,-2.9642 l 0,-21.0032 -0.592833,0 0,-25.99998 -7.452758,2.03257 c -1.016285,0.25407 -2.117261,0 -2.879474,-0.76221 -2.879475,-2.79478 -5.674259,-5.67426 -8.553734,-8.55373 -1.185666,-1.18567 -1.185666,-3.04886 0,-4.23453 1.185666,-1.18566 3.048856,-1.18566 4.234522,0 l 7.283377,7.28338 9.90878,-2.6254 c 0.254071,-0.0847 0.508143,-0.0847 0.846904,-0.0847 l 13.211707,0 z" fill="#000000" fill-rule="evenodd"/><path style="" d="m 44.550429,977.48932 19.648181,0 c 0.375348,0 0.677523,0.28329 0.677523,0.63518 0,0.35189 -0.302175,0.63518 -0.677523,0.63518 l -19.648181,0 c -0.375348,0 -0.677523,-0.28329 -0.677523,-0.63518 0,-0.35189 0.302175,-0.63518 0.677523,-0.63518 z" fill="#000000" fill-rule="evenodd"/><path style="" class="fil0" d="m 54.374521,968.51212 c 4.996735,0 8.977185,3.47231 8.977185,7.70683 l -17.954371,0 c 0,-4.23452 4.065141,-7.70683 8.977186,-7.70683 z" fill="#000000" fill-rule="evenodd"/><path transform="matrix(0.08469043,0,0,0.08469043,0.00326463,952.33625)" style="" d="m 651,173 c 0,4.97056 -4.02944,9 -9,9 -4.97056,0 -9,-4.02944 -9,-9 0,-4.97056 4.02944,-9 9,-9 4.97056,0 9,4.02944 9,9 z" fill="#000000" fill-rule="evenodd"/><path transform="matrix(0.08469043,0,0,0.08469043,0.00326463,952.33625)" style="" d="m 678,724 30,295 -649,0 30,-295 z" fill="#000000" fill-rule="evenodd"/><path style="" d="m 11.267092,1039.8214 4.996735,0 0,2.456 -4.996735,0 z" fill="#000000" fill-rule="evenodd"/><path style="" d="m 48.70026,1039.8214 4.996736,0 0,2.456 -4.996736,0 z" fill="#000000" fill-rule="evenodd"/><path style="" class="fil0" d="m 33.201913,998.91599 0.762214,-1.52443 -1.524428,0 -1.524427,0 0.762213,1.52443 -0.423452,5.84361 -1.863189,-7.28335 c -3.302927,0 -6.013021,2.71005 -6.013021,6.01305 l 0,8.9772 17.954371,0 0,-8.9772 c 0,-3.303 -2.710093,-6.01305 -6.01302,-6.01305 l -1.86319,7.28335 -0.423452,-5.84361 z" fill="#000000" fill-rule="evenodd"/><path style="" class="fil0" d="m 32.439699,982.40135 c 3.302927,0 6.013021,3.04886 6.013021,6.77524 0,3.72638 -2.710094,6.77523 -6.013021,6.77523 -3.302926,0 -6.01302,-3.04885 -6.01302,-6.77523 0,-3.72638 2.710094,-6.77524 6.01302,-6.77524 z" fill="#000000" fill-rule="evenodd"/><path style="" class="fil0" d="m 16.517898,1001.9648 c -1.355046,2.2867 -0.423452,6.0131 2.117261,6.3518 l 0,2.456 c 0,1.101 -2.03257,1.1857 -2.03257,1.6092 l 2.03257,0 0.762214,0 2.03257,0 c 0,-0.4235 -2.03257,-0.4235 -2.03257,-1.6092 l 0,-2.456 c 2.540713,-0.3387 3.556998,-4.0651 2.117261,-6.3518 l -5.081426,0 z m 0.254072,0.4235 4.657973,0 c 0.254072,0.5081 0.423453,1.1857 0.423453,1.7785 0.08469,1.6938 -0.846905,3.8111 -2.794785,3.8111 -0.423452,0 -0.931594,-0.085 -1.270356,-0.3388 -1.100976,-0.6775 -1.524428,-2.202 -1.524428,-3.4723 0,-0.5928 0.169381,-1.1857 0.423452,-1.7785 z" fill="#000000" fill-rule="evenodd"/><path style="" class="fil0" d="m 21.429943,1003.9974 c 0,0.085 0,0.085 0,0.1694 0.08469,1.4397 -0.677523,3.3876 -2.371332,3.3876 -0.423452,0 -0.762213,-0.085 -1.100975,-0.3388 -0.931595,-0.5928 -1.355047,-2.0325 -1.270357,-3.1335 0,0 0,-0.085 0,-0.085 1.693809,1.2704 2.964165,-0.6775 4.742664,-0.085 z" fill="#000000" fill-rule="evenodd"/><path style="" class="fil0" d="m 13.299662,995.18961 -2.03257,0 c -0.08469,0 -0.169381,-0.0847 -0.169381,-0.16938 l 0,-1.60912 c 0,-0.0847 0.08469,-0.16938 0.169381,-0.16938 l 2.03257,0 c 0.08469,0 0.169381,0.0847 0.169381,0.16938 l 0,1.60912 c 0,0.0847 -0.08469,0.16938 -0.169381,0.16938 z" fill="#000000" fill-rule="evenodd"/><path transform="matrix(0.08469043,0,0,0.08469043,0.00326463,952.33625)" style="" d="m 112,601 0,47 47,0 0,-47 z" fill="#000000" fill-rule="evenodd"/><path style="" class="fil0" d="m 11.267092,998.15377 c -1.016285,0.42345 -1.7784992,1.43974 -1.7784992,2.62543 l 0,2.0325 4.4039022,0 0,4.8274 -4.4039022,0 0,3.9805 c 0,0.4234 0.3387617,0.7622 0.7622142,0.7622 l 3.98045,0 c 0.423452,0 0.762214,-0.3388 0.762214,-0.7622 l 0,-10.7557 c 0,-1.1857 -0.762214,-2.20198 -1.778499,-2.62544 l 0,-2.54071 -2.032571,0 0,2.54071 z" fill="#000000" fill-rule="evenodd"/><path transform="matrix(0.08469043,0,0,0.08469043,0.00326463,952.33625)" style="" d="m 1052,501 0,189 -95,0 0,-189 z" fill="#000000" fill-rule="evenodd"/></g><text x="0" y="115" fill="#000000" font-size="5px" font-weight="bold" font-family="'Helvetica Neue', Helvetica, Arial-Unicode, Arial, Sans-serif">Created by Krisada</text><text x="0" y="120" fill="#000000" font-size="5px" font-weight="bold" font-family="'Helvetica Neue', Helvetica, Arial-Unicode, Arial, Sans-serif">from the Noun Project</text></svg>